<?xml version="1.0" encoding="iso-8859-1"?>
<!-- Generator: Adobe Illustrator 16.0.0, SVG Export Plug-In . SVG Version: 6.00 Build 0)  -->
<!DOCTYPE svg PUBLIC "-//W3C//DTD SVG 1.1//EN" "http://www.w3.org/Graphics/SVG/1.1/DTD/svg11.dtd">
<svg version="1.1" id="Capa_1" xmlns="http://www.w3.org/2000/svg" xmlns:xlink="http://www.w3.org/1999/xlink" x="0px" y="0px"
	 width="21.59px" height="21.137px" viewBox="0 0 21.59 21.137" style="enable-background:new 0 0 21.59 21.137;"
	 xml:space="preserve">
<path style="fill:#000000;" d="M18.622,8.145L18.077,6.85c0,0,1.268-2.861,1.156-2.971L17.554,2.24
	c-0.116-0.113-2.978,1.193-2.978,1.193L13.256,2.9c0,0-1.166-2.9-1.326-2.9H9.561C9.396,0,8.317,2.906,8.317,2.906L6.999,3.441
	c0,0-2.922-1.242-3.034-1.131L2.289,3.951C2.173,4.064,3.507,6.867,3.507,6.867L2.962,8.16C2.962,8.16,0,9.301,0,9.455v2.322
	c0,0.162,2.969,1.219,2.969,1.219l0.545,1.291c0,0-1.268,2.859-1.157,2.969l1.678,1.643c0.114,0.111,2.977-1.195,2.977-1.195
	l1.321,0.535c0,0,1.166,2.898,1.327,2.898h2.369c0.164,0,1.244-2.906,1.244-2.906l1.322-0.535c0,0,2.916,1.242,3.029,1.133
	l1.678-1.641c0.117-0.115-1.22-2.916-1.22-2.916l0.544-1.293c0,0,2.963-1.143,2.963-1.299v-2.32
	C21.59,9.199,18.622,8.145,18.622,8.145z M14.256,10.568c0,1.867-1.553,3.387-3.461,3.387c-1.906,0-3.461-1.52-3.461-3.387
	s1.555-3.385,3.461-3.385C12.704,7.184,14.256,8.701,14.256,10.568z"/>
<g>
</g>
<g>
</g>
<g>
</g>
<g>
</g>
<g>
</g>
<g>
</g>
<g>
</g>
<g>
</g>
<g>
</g>
<g>
</g>
<g>
</g>
<g>
</g>
<g>
</g>
<g>
</g>
<g>
</g>
</svg>
