<?xml version="1.0" encoding="iso-8859-1"?>
<!-- Generator: Adobe Illustrator 16.0.0, SVG Export Plug-In . SVG Version: 6.00 Build 0)  -->
<!DOCTYPE svg PUBLIC "-//W3C//DTD SVG 1.1//EN" "http://www.w3.org/Graphics/SVG/1.1/DTD/svg11.dtd">
<svg version="1.1" id="Layer_3" xmlns="http://www.w3.org/2000/svg" xmlns:xlink="http://www.w3.org/1999/xlink" x="0px" y="0px"
	 width="512px" height="512px" viewBox="0 0 512 512" style="enable-background:new 0 0 512 512;" xml:space="preserve">
<polygon points="354.338,248.908 461.947,303.739 484.646,259.189 421.586,227.058 459.359,214.785 443.908,167.232 
	406.137,179.505 438.268,116.443 393.717,93.744 338.887,201.355 281,220.164 281,159.299 366.4,73.899 331.045,38.544 281,88.588 
	281,48.872 231,48.872 231,88.588 180.955,38.544 145.6,73.899 231,159.299 231,220.164 173.115,201.355 118.285,93.745 
	73.734,116.444 105.865,179.504 68.092,167.231 52.641,214.784 90.414,227.058 27.354,259.189 50.053,303.739 157.664,248.908 
	215.549,267.716 179.773,316.957 60.486,335.85 68.309,385.234 138.211,374.164 114.867,406.294 155.318,435.684 178.662,403.553 
	189.734,473.456 239.119,465.634 220.225,346.347 256,297.106 291.775,346.347 272.883,465.633 322.268,473.455 333.338,403.553 
	356.684,435.684 397.135,406.294 373.789,374.164 443.693,385.235 451.516,335.851 332.227,316.958 296.451,267.716 "/>
</svg>
