<?xml version="1.0" encoding="iso-8859-1"?>
<!-- Generator: Adobe Illustrator 18.0.0, SVG Export Plug-In . SVG Version: 6.00 Build 0)  -->
<!DOCTYPE svg PUBLIC "-//W3C//DTD SVG 1.1//EN" "http://www.w3.org/Graphics/SVG/1.1/DTD/svg11.dtd">
<svg version="1.1" id="Capa_1" xmlns="http://www.w3.org/2000/svg" xmlns:xlink="http://www.w3.org/1999/xlink" x="0px" y="0px"
	 viewBox="0 0 75.504 86.39" style="enable-background:new 0 0 75.504 86.39;" xml:space="preserve">
<path d="M74.197,61.17l-9.328-5.39l7.875-4.69c1.266-0.61,1.658-2.31,0.938-3.56c-0.733-1.28-2.315-1.55-3.516-0.85l-10.5,6.15
	l-16.687-9.71l16.687-9.61l10.5,6.14c0.328,0.24,0.75,0.38,1.219,0.38c0.89,0,1.687-0.42,2.297-1.22
	c0.703-1.27,0.328-2.95-0.938-3.56l-7.875-4.69l9.328-5.39c1.216-0.7,1.634-2.27,0.938-3.56c-0.665-1.24-2.31-1.67-3.563-0.94
	l-9.375,5.44l-0.14-9.38c-0.022-1.45-1.125-2.62-2.578-2.62s-2.589,1.26-2.578,2.62l0.093,12.38l-16.593,9.61v-19.5l10.453-5.96
	c1.22-0.69,1.752-2.3,1.031-3.56c-0.732-1.28-2.235-1.66-3.516-0.94l-7.968,4.5V2.62c0-1.45-1.172-2.62-2.625-2.62
	s-2.578,1.17-2.578,2.62v10.74l-8.25-4.6C25.663,8.05,24.2,8.45,23.479,9.7c-0.732,1.28-0.277,2.85,0.984,3.56l10.735,6.05v19.31
	l-16.969-9.79l0.094-12.1c0.141-1.36-1.078-2.62-2.531-2.62h-0.094c-1.359,0-2.563,1.17-2.578,2.62l-0.094,9.1l-9.14-5.25
	c-1.276-0.74-2.851-0.3-3.516,0.93c-0.696,1.3-0.336,2.83,0.938,3.57l9.234,5.34l-8.063,4.83c-1.265,0.61-1.66,2.31-0.89,3.56
	c0.496,0.81,1.218,1.22,2.203,1.22c0.515,0,0.944-0.13,1.359-0.38l10.547-6.23l16.922,9.7l-16.922,9.8L5.151,46.68
	c-1.266-0.74-2.898-0.39-3.562,0.85c-0.696,1.29-0.318,2.84,0.89,3.56l8.063,4.78l-9.234,5.39C0.037,62-0.375,63.56,0.37,64.83
	c0.521,0.88,1.219,1.31,2.203,1.31c0.234,0,0.703-0.14,1.313-0.38l9.14-5.25l0.094,9.1c0.015,1.45,1.219,2.57,2.578,2.57h0.094
	c1.453,0,2.542-1.21,2.531-2.67l-0.094-12.09l16.969-9.7v19.21l-10.735,6.05c-1.281,0.72-1.729,2.29-0.984,3.56
	c0.521,0.89,1.219,1.32,2.203,1.32c0.469,0,0.901-0.08,1.266-0.29l8.25-4.68v10.92c0,1.45,1.125,2.58,2.578,2.58
	s2.625-1.13,2.625-2.58V73.07l7.968,4.5c0.365,0.21,0.797,0.29,1.219,0.29c1.031,0,1.791-0.42,2.297-1.32
	c0.712-1.26,0.252-2.84-1.031-3.56l-10.453-5.86v-19.5l16.593,9.61l-0.093,12.28c-0.012,1.46,1.125,2.67,2.578,2.67
	s2.556-1.12,2.578-2.57l0.14-9.43l9.375,5.49c0.362,0.21,0.844,0.28,1.36,0.28c0.984,0,1.706-0.41,2.203-1.22
	C75.904,63.48,75.413,61.87,74.197,61.17z"/>
<g>
</g>
<g>
</g>
<g>
</g>
<g>
</g>
<g>
</g>
<g>
</g>
<g>
</g>
<g>
</g>
<g>
</g>
<g>
</g>
<g>
</g>
<g>
</g>
<g>
</g>
<g>
</g>
<g>
</g>
</svg>
