<?xml version="1.0" encoding="utf-8"?>
<!-- Generator: Adobe Illustrator 16.0.0, SVG Export Plug-In . SVG Version: 6.00 Build 0)  -->
<!DOCTYPE svg PUBLIC "-//W3C//DTD SVG 1.1//EN" "http://www.w3.org/Graphics/SVG/1.1/DTD/svg11.dtd">
<svg version="1.1" id="Artwork" xmlns="http://www.w3.org/2000/svg" xmlns:xlink="http://www.w3.org/1999/xlink" x="0px" y="0px"
	 width="512px" height="512px" viewBox="0 0 512 512" enable-background="new 0 0 512 512" xml:space="preserve">
<path d="M494.079,116.695c-2.491-9.958-14.903-13.424-22.157-6.165l-58.913,58.914c-13.083,13.077-34.291,13.077-47.372,0
	l-27.031-27.031c-13.082-13.081-13.082-34.289,0-47.372l58.197-58.197c7.306-7.307,3.751-19.838-6.306-22.193
	c-13.772-3.218-28.327-4.406-43.339-3.208c-64.522,5.148-123.907,65.649-127.923,130.254c-1.521,24.503,3.43,47.667,13.077,68.186
	L26.363,386.864c-9.263,7.96-14.81,19.402-15.323,31.602c-0.519,12.201,4.042,24.068,12.599,32.78l34.902,35.541
	c8.64,8.802,20.57,13.586,32.899,13.191c12.33-0.4,23.928-5.936,31.986-15.272l178.388-206.684
	c19.916,8.889,42.209,13.424,65.747,11.956c65.041-4.057,125.553-63.92,130.29-128.91
	C498.973,145.672,497.592,130.763,494.079,116.695z"/>
</svg>
