<?xml version="1.0" encoding="utf-8"?>
<!-- Generator: Adobe Illustrator 16.0.4, SVG Export Plug-In . SVG Version: 6.00 Build 0)  -->
<!DOCTYPE svg PUBLIC "-//W3C//DTD SVG 1.1//EN" "http://www.w3.org/Graphics/SVG/1.1/DTD/svg11.dtd">
<svg version="1.1" id="Capa_1" xmlns="http://www.w3.org/2000/svg" xmlns:xlink="http://www.w3.org/1999/xlink" x="0px" y="0px"
	 width="16px" height="16px" viewBox="0 0 16 16" enable-background="new 0 0 16 16" xml:space="preserve">
<path d="M15,1H1C0.448,1,0,1.448,0,2v9c0,0.552,0.448,1,1,1h4.999c-0.002,0.723-0.031,1.662-0.305,2H5.492C5.22,14,5,14.225,5,14.5
	S5.22,15,5.492,15h5.015C10.779,15,11,14.775,11,14.5S10.779,14,10.508,14h-0.201c-0.275-0.338-0.304-1.277-0.306-2H15
	c0.552,0,1-0.448,1-1V2C16,1.448,15.552,1,15,1z M15,10H1V2h14V10z"/>
</svg>
