<?xml version="1.0" encoding="utf-8"?>
<!-- Generator: Adobe Illustrator 16.0.0, SVG Export Plug-In . SVG Version: 6.00 Build 0)  -->
<!DOCTYPE svg PUBLIC "-//W3C//DTD SVG 1.1//EN" "http://www.w3.org/Graphics/SVG/1.1/DTD/svg11.dtd">
<svg version="1.1" id="Layer_1" xmlns="http://www.w3.org/2000/svg" xmlns:xlink="http://www.w3.org/1999/xlink" x="0px" y="0px"
	 width="50px" height="50px" viewBox="0 0 50 50" enable-background="new 0 0 50 50" xml:space="preserve">
<g>
	<path d="M40.822,24.038c-0.264-0.265-0.689-0.265-0.953,0c-0.228,0.228-0.246,0.573-0.079,0.834l-3.007,3.008
		c-0.089-0.061-0.187-0.106-0.279-0.158l0.904-3.372c0.309,0.014,0.6-0.176,0.682-0.485c0.099-0.36-0.115-0.729-0.476-0.825
		c-0.36-0.098-0.729,0.116-0.825,0.477c-0.083,0.311,0.073,0.619,0.35,0.762l-0.887,3.307c-0.371-0.164-0.779-0.263-1.207-0.287
		c-3.048-0.168-2.584,3.01-3.806,3.009c-0.285,0-1.716-0.646-1.716-0.646l-0.982,0.201c-3.418,0.497-6.636-1.889-6.76-1.98
		l-0.39-0.296c0,0-0.661,1.275-1.829,1.912c-0.865,0.47-1.861,0.567-2.545,0.567c-1.251,0-2.832-0.348-3.539-1.128
		c-0.111-0.123-0.199-0.256-0.301-0.383c-3.606,1.845-5.085,4.896-3.663,4.896c2.315,0,25.53,0,25.53,0
		c1.698,0,3.075-1.378,3.075-3.076c0-0.951-0.441-1.762-1.119-2.317l2.986-2.987c0.261,0.169,0.606,0.149,0.835-0.078
		C41.086,24.728,41.086,24.301,40.822,24.038z M34.69,29.906c-0.372,0-0.674-0.302-0.674-0.674s0.302-0.674,0.674-0.674
		s0.674,0.302,0.674,0.674S35.063,29.906,34.69,29.906z"/>
	<path d="M19.239,28.905c2.863-1.558,1.811-7.369-1.684-5.348c3.494-2.905,4.963,2.837,4.633,3.785c0,0,3.071,2.32,6.253,1.852
		c0-4.032-1.423-10.615-7.265-12.289c-7.789-2.231-11.747,6.568-7.199,11.579C14.745,29.33,17.581,29.808,19.239,28.905z"/>
</g>
<g id="Ribbon_6">
	<g id="Regal_Vector_Pack_02">
	</g>
</g>
</svg>
