<?xml version="1.0" encoding="utf-8"?>
<!-- Generator: Adobe Illustrator 16.0.0, SVG Export Plug-In . SVG Version: 6.00 Build 0)  -->
<!DOCTYPE svg PUBLIC "-//W3C//DTD SVG 1.1//EN" "http://www.w3.org/Graphics/SVG/1.1/DTD/svg11.dtd">
<svg version="1.1" id="Artwork" xmlns="http://www.w3.org/2000/svg" xmlns:xlink="http://www.w3.org/1999/xlink" x="0px" y="0px"
	 width="512px" height="512px" viewBox="0 0 512 512" enable-background="new 0 0 512 512" xml:space="preserve">
<path d="M483.002,64.219L469.87,52.936c-21.798-18.732-54.554-16.643-73.799,4.698L176.389,301.218l-66.312-57.113
	c-21.775-18.753-54.536-16.707-73.804,4.612l-11.611,12.847c-9.416,10.413-14.305,24.15-13.595,38.18
	c0.717,14.023,6.973,27.188,17.402,36.6l121.553,111.31c10.524,9.883,24.628,15.037,39.044,14.273
	c14.416-0.763,27.894-7.386,37.311-18.329l262.245-304.71c9.162-10.646,13.717-24.495,12.661-38.497
	C500.229,86.381,493.654,73.371,483.002,64.219z"/>
</svg>
